<?xml version="1.0" encoding="utf-8"?>
<!-- Generator: Adobe Illustrator 24.0.1, SVG Export Plug-In . SVG Version: 6.00 Build 0)  -->
<svg version="1.1" id="Layer_1" xmlns="http://www.w3.org/2000/svg" xmlns:xlink="http://www.w3.org/1999/xlink" x="0px" y="0px"
	 viewBox="0 0 279 279" style="enable-background:new 0 0 279 279;" xml:space="preserve">
<style type="text/css">
	.st0{fill:#F6921E;}
	.st1{fill:#F05A28;}
</style>
<path class="st0" d="M0,139.8L139.6,0.3l139.6,139.6l-139.6-78L0,139.8z"/>
<path class="st1" d="M279.2,139.8L139.6,279.4L0,139.8l139.6,78L279.2,139.8z"/>
<g>
	<path class="st1" d="M130.5,144l9.1-9.1l9.1,9.1l-9.1-5.1L130.5,144z"/>
	<g>
		<path class="st1" d="M50.4,148.1v2.3h-1.2v-2.3c-1.8-0.1-3.4-0.6-4.7-1.5c-1.3-0.9-2.3-2.2-3-3.8c-0.5-1.2-0.7-2.4-0.7-3.7
			c0-1.3,0.2-2.5,0.7-3.7c0.6-1.6,1.6-2.9,3-3.8c1.5-1,3.2-1.6,5.3-1.6c2,0,3.8,0.5,5.3,1.6c1.3,0.9,2.3,2.2,3,3.8
			c0.5,1.2,0.7,2.4,0.7,3.7c0,1.3-0.2,2.5-0.7,3.7c-0.6,1.6-1.6,2.9-3,3.8C53.7,147.5,52.2,148,50.4,148.1z M49.2,146.8v-6.1h1.2v6
			c1.5-0.1,2.7-0.5,3.8-1.3c1.1-0.8,2-1.9,2.5-3.2c0.4-1,0.6-2.1,0.6-3.2s-0.2-2.2-0.6-3.2c-0.5-1.4-1.4-2.4-2.5-3.2
			c-1.3-0.9-2.8-1.3-4.5-1.3c-1.8,0-3.3,0.4-4.5,1.3c-1.1,0.8-2,1.9-2.5,3.2c-0.4,1-0.6,2.1-0.6,3.2s0.2,2.2,0.6,3.2
			c0.5,1.4,1.4,2.4,2.5,3.2C46.4,146.3,47.7,146.7,49.2,146.8z"/>
		<path class="st1" d="M75.5,130.7v10.6c0,1.9-0.7,3.5-2,4.8s-2.9,2-4.8,2s-3.5-0.7-4.8-2s-2-2.9-2-4.8v-10.6h1.3v10.6
			c0,1.5,0.5,2.8,1.6,3.9c1.1,1.1,2.4,1.6,3.9,1.6s2.8-0.5,3.9-1.6c1.1-1.1,1.6-2.4,1.6-3.9v-10.6H75.5z"/>
		<path class="st1" d="M81.1,142.3l-2.4,5.2h-1.4l7.5-16.2l0.6-1.3l0.6,1.3l7.5,16.2H92l-2.4-5.2H81.1z M89,141.1l-3.7-8l-3.7,8H89z
			"/>
		<path class="st1" d="M95.7,147.5v-17.4l12.9,14.7v-14.1h1.3v17.5l-12.9-14.7v14H95.7z"/>
		<path class="st1" d="M119.3,132v15.5H118V132h-5.6v-1.3h12.5v1.3H119.3z"/>
	</g>
	<g>
		<path class="st1" d="M161.3,132v15.5H160V132h-5.6v-1.3h12.5v1.3H161.3z"/>
		<path class="st1" d="M180,132h-9.3v5.8h8.4v1.3h-8.4v7.1h9.3v1.3h-10.6v-16.8H180V132z"/>
		<path class="st1" d="M194.2,131.9c-0.9-0.4-1.9-0.5-2.8-0.5c-2.1,0-4,0.8-5.5,2.3c-1.5,1.5-2.3,3.3-2.3,5.5c0,2.1,0.8,4,2.3,5.5
			c1.5,1.5,3.3,2.3,5.5,2.3c1,0,1.9-0.2,2.8-0.5c0.9-0.4,1.7-0.9,2.4-1.5l0.9,0.9c-0.8,0.8-1.8,1.4-2.9,1.8s-2.2,0.6-3.3,0.6
			c-2.5,0-4.6-0.9-6.4-2.6s-2.6-3.9-2.6-6.4c0-2.5,0.9-4.6,2.6-6.4s3.9-2.6,6.4-2.6c1.1,0,2.3,0.2,3.3,0.6c1.1,0.4,2,1,2.9,1.8
			l-0.9,0.9C195.9,132.8,195.1,132.3,194.2,131.9z"/>
		<path class="st1" d="M202.1,130.7v7.1h9.3v-7.1h1.3v16.8h-1.3v-8.4h-9.3v8.4h-1.3v-16.8H202.1z"/>
		<path class="st1" d="M217.3,143.4c0,0.8,0.3,1.5,0.8,2c0.5,0.5,1.2,0.9,2,1.1c0.7,0.2,1.4,0.3,2.1,0.3s1.4-0.1,2.1-0.3
			c0.8-0.3,1.5-0.6,2-1.1c0.5-0.6,0.8-1.2,0.8-2c0-1.1-0.5-1.9-1.6-2.5c-0.6-0.4-1.8-0.7-3.5-1.1c-2-0.5-3.4-1-4.1-1.4
			c-1.3-0.8-1.9-1.9-1.9-3.5c0-1.1,0.4-2,1.1-2.8c0.7-0.7,1.5-1.2,2.7-1.6c0.8-0.2,1.6-0.4,2.4-0.4c0.9,0,1.7,0.1,2.4,0.4
			c1.1,0.3,2,0.9,2.6,1.6c0.7,0.8,1.1,1.7,1.1,2.8h-1.3c0-0.8-0.3-1.4-0.8-2c-0.5-0.5-1.2-0.9-2-1.1c-0.6-0.2-1.3-0.3-2.1-0.3
			s-1.4,0.1-2.1,0.3c-0.8,0.3-1.5,0.6-2,1.1c-0.5,0.6-0.8,1.2-0.8,2c0,1.1,0.5,1.9,1.6,2.5c0.6,0.4,1.8,0.7,3.5,1.1
			c2,0.5,3.4,1,4.1,1.4c1.3,0.8,1.9,1.9,1.9,3.5c0,1.1-0.4,2-1.1,2.8c-0.6,0.7-1.5,1.2-2.6,1.6c-0.8,0.2-1.6,0.4-2.4,0.4
			c-0.9,0-1.7-0.1-2.4-0.4c-1.1-0.3-2-0.9-2.7-1.6c-0.7-0.8-1.1-1.7-1.1-2.8H217.3z"/>
	</g>
</g>
</svg>
