<?xml version="1.0" encoding="utf-8"?>
<!-- Generator: Adobe Illustrator 24.0.1, SVG Export Plug-In . SVG Version: 6.00 Build 0)  -->
<svg version="1.1" id="Layer_1" xmlns="http://www.w3.org/2000/svg" xmlns:xlink="http://www.w3.org/1999/xlink" x="0px" y="0px"
	 viewBox="0 0 279 108" style="enable-background:new 0 0 279 108;" xml:space="preserve">
<style type="text/css">
	.st0{fill:none;}
	.st1{fill:#5EB3E4;}
	.st2{fill:#003764;}
	.st3{fill:#0082CA;}
	.st4{fill:#0069A7;}
</style>
<g>
	<line class="st0" x1="112.5" y1="51.3" x2="112.5" y2="24.2"/>
	<g>
		<path class="st1" d="M279.5,98c0,5.5-4.5,10-10,10H9.8c-5.5,0-10-4.5-10-10V9.7c0-5.5,4.5-10,10-10h259.6c5.5,0,10,4.5,10,10V98z"
			/>
	</g>
	<g>
		<path class="st2" d="M38.4,70.4c-0.4,0-0.8,0-1.1,0.1c-0.4,0.1-0.7,0.2-1,0.3c-0.3,0.1-0.5,0.3-0.7,0.6c-0.2,0.2-0.3,0.5-0.3,0.8
			c0,0.5,0.1,0.9,0.4,1.1c0.2,0.3,0.6,0.5,1.1,0.7c0.5,0.2,1.1,0.4,1.8,0.6c0.7,0.2,1.6,0.5,2.5,0.8c1.2,0.4,2.4,0.9,3.4,1.5
			c1,0.6,1.9,1.3,2.6,2.1c0.7,0.8,1.3,1.7,1.7,2.7c0.4,1,0.6,2.2,0.6,3.4c0,1.6-0.3,3-1,4.3c-0.7,1.3-1.5,2.4-2.6,3.3
			c-1.1,0.9-2.4,1.6-3.8,2.2c-1.4,0.5-2.9,0.8-4.5,0.8c-1.3,0-2.6-0.2-3.8-0.6c-1.2-0.4-2.3-0.9-3.3-1.6c-1-0.7-1.9-1.5-2.6-2.5
			c-0.7-1-1.3-2-1.7-3.1l2.3-1.3c0.4-0.2,0.8-0.4,1.2-0.5c0.4-0.1,0.9-0.2,1.3-0.2c0.6,0,1.2,0.1,1.7,0.4c0.5,0.3,1,0.6,1.5,0.9
			c0.5,0.3,1,0.6,1.5,0.9c0.5,0.3,1.1,0.4,1.8,0.4c0.4,0,0.9-0.1,1.5-0.2c0.5-0.1,1-0.3,1.5-0.6c0.5-0.3,0.8-0.6,1.1-1
			c0.3-0.4,0.4-0.9,0.4-1.4c0-0.5-0.1-0.9-0.4-1.2c-0.3-0.3-0.6-0.6-1.1-0.8c-0.5-0.2-1-0.4-1.6-0.6c-0.6-0.2-1.3-0.4-1.9-0.7
			c-1.1-0.4-2.2-0.9-3.3-1.4c-1.1-0.5-2-1.1-2.9-1.8c-0.9-0.7-1.5-1.6-2.1-2.6c-0.5-1-0.8-2.3-0.8-3.9c0-1.4,0.3-2.7,0.9-3.9
			c0.6-1.1,1.4-2.1,2.3-2.9c1-0.8,2.1-1.4,3.3-1.8c1.2-0.4,2.5-0.6,3.8-0.6c1,0,1.9,0.2,2.8,0.5c0.9,0.3,1.8,0.7,2.6,1.3
			c0.8,0.5,1.6,1.1,2.3,1.8c0.7,0.7,1.3,1.3,1.9,2l-2.3,1.9c-0.4,0.4-0.9,0.7-1.4,0.8c-0.5,0.2-1,0.2-1.6,0.2
			c-0.5,0-0.9-0.1-1.3-0.2c-0.4-0.1-0.7-0.3-1-0.4c-0.3-0.1-0.6-0.3-0.9-0.4C39.2,70.5,38.8,70.4,38.4,70.4z"/>
		<path class="st2" d="M62.8,95.5h-7.3V63.4h7.3V95.5z M65.9,77.6l7.7-11.7c0.2-0.3,0.5-0.6,0.7-0.9c0.3-0.3,0.6-0.6,0.9-0.8
			c0.3-0.2,0.7-0.4,1-0.6c0.4-0.1,0.7-0.2,1.1-0.2h6.6L74.4,78c-0.2,0.3-0.5,0.5-0.7,0.7c-0.3,0.2-0.4,0.3-0.5,0.3
			c0,0,0.1,0,0.2,0.1c0.1,0,0.2,0.1,0.3,0.2c0.1,0.1,0.2,0.2,0.4,0.3c0.1,0.1,0.3,0.3,0.4,0.4l10.3,15.5h-6.6
			c-0.9,0-1.6-0.2-2.2-0.7c-0.6-0.5-1.1-1.1-1.7-1.8l-8.4-12.6c-0.2-0.3-0.3-0.5-0.5-0.6c-0.2-0.2-0.4-0.3-0.5-0.4
			c-0.2-0.1-0.3-0.2-0.4-0.2C64.3,79,64.2,79,64.2,79c0,0,0.1,0,0.2-0.1c0.1,0,0.3-0.1,0.4-0.2c0.2-0.1,0.4-0.2,0.5-0.4
			C65.6,78.1,65.8,77.9,65.9,77.6z"/>
		<path class="st2" d="M105.7,95.5h-7.3V81.9c0-0.3-0.1-0.6-0.3-1c-0.2-0.3-0.4-0.7-0.7-1.1L85.2,63.4h6c1.1,0,2.1,0.2,2.9,0.7
			c0.8,0.4,1.5,1,2.1,1.8l5.1,6.9c0.1,0.2,0.3,0.4,0.4,0.6c0.1,0.2,0.2,0.4,0.2,0.5c0.1,0.2,0.1,0.4,0.2,0.5c0-0.2,0.1-0.3,0.2-0.5
			c0.1-0.2,0.1-0.3,0.2-0.5c0.1-0.2,0.2-0.4,0.4-0.6l5.1-6.9c0.6-0.9,1.3-1.5,2.1-1.9c0.8-0.4,1.8-0.6,2.9-0.6h6l-12.2,16.5
			c-0.3,0.4-0.5,0.7-0.7,1c-0.2,0.3-0.3,0.6-0.3,1V95.5z"/>
		<path class="st2" d="M165.5,95.5h-7.3V82.8h-14.3v12.7h-7.3V63.4h7.3V76h14.3V63.4h7.3V95.5z"/>
		<path class="st2" d="M181.5,95.5h-7.3V63.4h7.3V95.5z"/>
		<path class="st2" d="M217.1,77.5v14c-0.9,0.9-1.8,1.6-2.7,2.2c-1,0.6-2,1-3.1,1.3c-1.1,0.3-2.1,0.5-3.3,0.7
			c-1.1,0.1-2.2,0.2-3.4,0.2c-1.5,0-3-0.2-4.4-0.6c-1.4-0.4-2.7-0.9-3.9-1.6c-1.2-0.7-2.3-1.6-3.3-2.6c-1-1-1.9-2.1-2.6-3.3
			c-0.7-1.2-1.3-2.5-1.7-3.9c-0.4-1.4-0.6-2.8-0.6-4.4c0-1.5,0.2-3,0.6-4.4c0.4-1.4,0.9-2.7,1.7-3.9c0.7-1.2,1.6-2.3,2.6-3.3
			c1-1,2.1-1.8,3.3-2.6c1.2-0.7,2.5-1.3,3.9-1.6c1.4-0.4,2.9-0.6,4.4-0.6c1.2,0,2.4,0.1,3.6,0.4c1.2,0.3,2.3,0.7,3.4,1.3
			c1.1,0.5,2.2,1.2,3.2,2c1,0.8,2,1.7,2.9,2.7l-1.9,1.9c-0.9,1-2.1,1.5-3.5,1.5c-1,0-1.9-0.3-2.7-0.8c-0.7-0.5-1.5-0.9-2.4-1.2
			c-0.8-0.3-1.7-0.4-2.7-0.4c-1.2,0-2.4,0.2-3.5,0.7c-1.1,0.5-2.1,1.1-2.9,1.9c-0.8,0.8-1.5,1.8-2,2.9c-0.5,1.1-0.7,2.3-0.7,3.5
			c0,1.3,0.3,2.5,0.8,3.6c0.5,1.1,1.2,2.1,2.1,2.9c0.9,0.8,1.9,1.4,3,1.9c1.1,0.5,2.3,0.7,3.5,0.7c0.9,0,1.7-0.1,2.6-0.2
			c0.9-0.2,1.6-0.4,2.3-0.7v-3.1c-0.7,0-1.4-0.1-2-0.4c-0.6-0.2-1.1-0.5-1.5-0.9c-0.4-0.4-0.8-0.8-1-1.3c-0.2-0.5-0.4-1.1-0.4-1.7
			v-2.6H217.1z"/>
		<path class="st2" d="M253,95.5h-7.3V82.8h-14.3v12.7h-7.3V63.4h7.3V76h14.3V63.4h7.3V95.5z"/>
	</g>
	<g>
		<polygon class="st3" points="139.6,11.9 139.6,39 111.7,55.2 		"/>
		<polygon class="st4" points="139.6,11.9 139.6,39 167.6,55.2 		"/>
	</g>
	<line class="st0" x1="112.5" y1="24.2" x2="112.5" y2="51.3"/>
</g>
</svg>
